<?xml version="1.0" encoding="UTF-8" standalone="no"?>
<!DOCTYPE svg PUBLIC "-//W3C//DTD SVG 1.1//EN"
 "http://www.w3.org/Graphics/SVG/1.1/DTD/svg11.dtd">
<!-- Generated by graphviz version 2.47.3 (20210619.1520)
 -->
<!-- Title: dependencies Pages: 1 -->
<svg width="3660pt" height="247pt"
 viewBox="0.00 0.00 3660.00 246.80" xmlns="http://www.w3.org/2000/svg" xmlns:xlink="http://www.w3.org/1999/xlink">
<g id="graph0" class="graph" transform="scale(1 1) rotate(0) translate(4 242.8)">
<title>dependencies</title>
<polygon fill="white" stroke="transparent" points="-4,4 -4,-242.8 3656,-242.8 3656,4 -4,4"/>
<text text-anchor="middle" x="1826" y="-8.2" font-family="sans-serif" font-size="14.00">dependencies</text>
<g id="clust1" class="cluster">
<title>cluster_AppModule</title>
<polygon fill="none" stroke="black" stroke-dasharray="1,5" points="8,-32.8 8,-230.8 3644,-230.8 3644,-32.8 8,-32.8"/>
</g>
<g id="clust24" class="cluster">
<title>cluster_AppModule_bootstrap</title>
<polygon fill="none" stroke="black" points="1835,-170.8 1835,-222.8 1959,-222.8 1959,-170.8 1835,-170.8"/>
</g>
<g id="clust25" class="cluster">
<title>cluster_AppModule_providers</title>
<polygon fill="none" stroke="black" points="3178,-40.8 3178,-92.8 3636,-92.8 3636,-40.8 3178,-40.8"/>
</g>
<g id="clust22" class="cluster">
<title>cluster_AppModule_imports</title>
<polygon fill="none" stroke="black" points="3026,-40.8 3026,-92.8 3170,-92.8 3170,-40.8 3026,-40.8"/>
</g>
<g id="clust2" class="cluster">
<title>cluster_AppModule_declarations</title>
<polygon fill="none" stroke="black" points="16,-40.8 16,-92.8 3018,-92.8 3018,-40.8 16,-40.8"/>
</g>
<!-- AppComponent -->
<g id="node1" class="node">
<title>AppComponent</title>
<polygon fill="#ffffb3" stroke="black" points="3009.94,-84.8 2904.06,-84.8 2904.06,-48.8 3009.94,-48.8 3009.94,-84.8"/>
<text text-anchor="middle" x="2957" y="-62.6" font-family="Times,serif" font-size="14.00">AppComponent</text>
</g>
<!-- AppModule -->
<g id="node20" class="node">
<title>AppModule</title>
<polygon fill="#8dd3c7" stroke="black" points="1938.66,-149.8 1935.66,-153.8 1914.66,-153.8 1911.66,-149.8 1855.34,-149.8 1855.34,-113.8 1938.66,-113.8 1938.66,-149.8"/>
<text text-anchor="middle" x="1897" y="-127.6" font-family="Times,serif" font-size="14.00">AppModule</text>
</g>
<!-- AppComponent&#45;&gt;AppModule -->
<g id="edge1" class="edge">
<title>AppComponent&#45;&gt;AppModule</title>
<path fill="none" stroke="black" d="M2957,-85.02C2957,-105.17 2957,-134.8 2957,-134.8 2957,-134.8 1948.88,-134.8 1948.88,-134.8"/>
<polygon fill="black" stroke="black" points="1948.88,-131.3 1938.88,-134.8 1948.88,-138.3 1948.88,-131.3"/>
</g>
<!-- AttendantcfgComponent -->
<g id="node2" class="node">
<title>AttendantcfgComponent</title>
<polygon fill="#ffffb3" stroke="black" points="2886.42,-84.8 2731.58,-84.8 2731.58,-48.8 2886.42,-48.8 2886.42,-84.8"/>
<text text-anchor="middle" x="2809" y="-62.6" font-family="Times,serif" font-size="14.00">AttendantcfgComponent</text>
</g>
<!-- AttendantcfgComponent&#45;&gt;AppModule -->
<g id="edge2" class="edge">
<title>AttendantcfgComponent&#45;&gt;AppModule</title>
<path fill="none" stroke="black" d="M2809,-84.91C2809,-104.14 2809,-131.8 2809,-131.8 2809,-131.8 1948.86,-131.8 1948.86,-131.8"/>
<polygon fill="black" stroke="black" points="1948.86,-128.3 1938.86,-131.8 1948.86,-135.3 1948.86,-128.3"/>
</g>
<!-- ConfigurationComponent -->
<g id="node3" class="node">
<title>ConfigurationComponent</title>
<polygon fill="#ffffb3" stroke="black" points="2713.88,-84.8 2554.12,-84.8 2554.12,-48.8 2713.88,-48.8 2713.88,-84.8"/>
<text text-anchor="middle" x="2634" y="-62.6" font-family="Times,serif" font-size="14.00">ConfigurationComponent</text>
</g>
<!-- ConfigurationComponent&#45;&gt;AppModule -->
<g id="edge3" class="edge">
<title>ConfigurationComponent&#45;&gt;AppModule</title>
<path fill="none" stroke="black" d="M2634,-85.07C2634,-103.36 2634,-128.8 2634,-128.8 2634,-128.8 1948.74,-128.8 1948.74,-128.8"/>
<polygon fill="black" stroke="black" points="1948.74,-125.3 1938.74,-128.8 1948.74,-132.3 1948.74,-125.3"/>
</g>
<!-- DivideComponent -->
<g id="node4" class="node">
<title>DivideComponent</title>
<polygon fill="#ffffb3" stroke="black" points="2535.94,-84.8 2416.06,-84.8 2416.06,-48.8 2535.94,-48.8 2535.94,-84.8"/>
<text text-anchor="middle" x="2476" y="-62.6" font-family="Times,serif" font-size="14.00">DivideComponent</text>
</g>
<!-- DivideComponent&#45;&gt;AppModule -->
<g id="edge4" class="edge">
<title>DivideComponent&#45;&gt;AppModule</title>
<path fill="none" stroke="black" d="M2476,-84.82C2476,-102.17 2476,-125.8 2476,-125.8 2476,-125.8 1949.11,-125.8 1949.11,-125.8"/>
<polygon fill="black" stroke="black" points="1949.11,-122.3 1939.11,-125.8 1949.11,-129.3 1949.11,-122.3"/>
</g>
<!-- FindjobComponent -->
<g id="node5" class="node">
<title>FindjobComponent</title>
<polygon fill="#ffffb3" stroke="black" points="2398.4,-84.8 2273.6,-84.8 2273.6,-48.8 2398.4,-48.8 2398.4,-84.8"/>
<text text-anchor="middle" x="2336" y="-62.6" font-family="Times,serif" font-size="14.00">FindjobComponent</text>
</g>
<!-- FindjobComponent&#45;&gt;AppModule -->
<g id="edge5" class="edge">
<title>FindjobComponent&#45;&gt;AppModule</title>
<path fill="none" stroke="black" d="M2336,-84.83C2336,-101.2 2336,-122.8 2336,-122.8 2336,-122.8 1948.7,-122.8 1948.7,-122.8"/>
<polygon fill="black" stroke="black" points="1948.7,-119.3 1938.7,-122.8 1948.7,-126.3 1948.7,-119.3"/>
</g>
<!-- FrontpageComponent -->
<g id="node6" class="node">
<title>FrontpageComponent</title>
<polygon fill="#ffffb3" stroke="black" points="2256.1,-84.8 2117.9,-84.8 2117.9,-48.8 2256.1,-48.8 2256.1,-84.8"/>
<text text-anchor="middle" x="2187" y="-62.6" font-family="Times,serif" font-size="14.00">FrontpageComponent</text>
</g>
<!-- FrontpageComponent&#45;&gt;AppModule -->
<g id="edge6" class="edge">
<title>FrontpageComponent&#45;&gt;AppModule</title>
<path fill="none" stroke="black" d="M2187,-85.04C2187,-100.37 2187,-119.8 2187,-119.8 2187,-119.8 1948.86,-119.8 1948.86,-119.8"/>
<polygon fill="black" stroke="black" points="1948.86,-116.3 1938.86,-119.8 1948.86,-123.3 1948.86,-116.3"/>
</g>
<!-- JobComponent -->
<g id="node7" class="node">
<title>JobComponent</title>
<polygon fill="#ffffb3" stroke="black" points="2100.28,-84.8 1999.72,-84.8 1999.72,-48.8 2100.28,-48.8 2100.28,-84.8"/>
<text text-anchor="middle" x="2050" y="-62.6" font-family="Times,serif" font-size="14.00">JobComponent</text>
</g>
<!-- JobComponent&#45;&gt;AppModule -->
<g id="edge7" class="edge">
<title>JobComponent&#45;&gt;AppModule</title>
<path fill="none" stroke="black" d="M2050,-84.85C2050,-99.17 2050,-116.8 2050,-116.8 2050,-116.8 1948.81,-116.8 1948.81,-116.8"/>
<polygon fill="black" stroke="black" points="1948.81,-113.3 1938.81,-116.8 1948.81,-120.3 1948.81,-113.3"/>
</g>
<!-- LayoutmachineComponent -->
<g id="node8" class="node">
<title>LayoutmachineComponent</title>
<polygon fill="#ffffb3" stroke="black" points="1981.42,-84.8 1812.58,-84.8 1812.58,-48.8 1981.42,-48.8 1981.42,-84.8"/>
<text text-anchor="middle" x="1897" y="-62.6" font-family="Times,serif" font-size="14.00">LayoutmachineComponent</text>
</g>
<!-- LayoutmachineComponent&#45;&gt;AppModule -->
<g id="edge8" class="edge">
<title>LayoutmachineComponent&#45;&gt;AppModule</title>
<path fill="none" stroke="black" d="M1897,-84.91C1897,-84.91 1897,-103.79 1897,-103.79"/>
<polygon fill="black" stroke="black" points="1893.5,-103.79 1897,-113.79 1900.5,-103.79 1893.5,-103.79"/>
</g>
<!-- LayoutworkersComponent -->
<g id="node9" class="node">
<title>LayoutworkersComponent</title>
<polygon fill="#ffffb3" stroke="black" points="1795.08,-84.8 1628.92,-84.8 1628.92,-48.8 1795.08,-48.8 1795.08,-84.8"/>
<text text-anchor="middle" x="1712" y="-62.6" font-family="Times,serif" font-size="14.00">LayoutworkersComponent</text>
</g>
<!-- LayoutworkersComponent&#45;&gt;AppModule -->
<g id="edge9" class="edge">
<title>LayoutworkersComponent&#45;&gt;AppModule</title>
<path fill="none" stroke="black" d="M1712,-84.85C1712,-99.17 1712,-116.8 1712,-116.8 1712,-116.8 1845.02,-116.8 1845.02,-116.8"/>
<polygon fill="black" stroke="black" points="1845.02,-120.3 1855.02,-116.8 1845.02,-113.3 1845.02,-120.3"/>
</g>
<!-- LoginworkerComponent -->
<g id="node10" class="node">
<title>LoginworkerComponent</title>
<polygon fill="#ffffb3" stroke="black" points="1611.42,-84.8 1456.58,-84.8 1456.58,-48.8 1611.42,-48.8 1611.42,-84.8"/>
<text text-anchor="middle" x="1534" y="-62.6" font-family="Times,serif" font-size="14.00">LoginworkerComponent</text>
</g>
<!-- LoginworkerComponent&#45;&gt;AppModule -->
<g id="edge10" class="edge">
<title>LoginworkerComponent&#45;&gt;AppModule</title>
<path fill="none" stroke="black" d="M1534,-85.04C1534,-100.37 1534,-119.8 1534,-119.8 1534,-119.8 1845,-119.8 1845,-119.8"/>
<polygon fill="black" stroke="black" points="1845,-123.3 1855,-119.8 1845,-116.3 1845,-123.3"/>
</g>
<!-- MachinecfgComponent -->
<g id="node11" class="node">
<title>MachinecfgComponent</title>
<polygon fill="#ffffb3" stroke="black" points="1439.19,-84.8 1290.81,-84.8 1290.81,-48.8 1439.19,-48.8 1439.19,-84.8"/>
<text text-anchor="middle" x="1365" y="-62.6" font-family="Times,serif" font-size="14.00">MachinecfgComponent</text>
</g>
<!-- MachinecfgComponent&#45;&gt;AppModule -->
<g id="edge11" class="edge">
<title>MachinecfgComponent&#45;&gt;AppModule</title>
<path fill="none" stroke="black" d="M1365,-84.83C1365,-101.2 1365,-122.8 1365,-122.8 1365,-122.8 1845.25,-122.8 1845.25,-122.8"/>
<polygon fill="black" stroke="black" points="1845.25,-126.3 1855.25,-122.8 1845.25,-119.3 1845.25,-126.3"/>
</g>
<!-- NavComponent -->
<g id="node12" class="node">
<title>NavComponent</title>
<polygon fill="#ffffb3" stroke="black" points="1273.15,-84.8 1168.85,-84.8 1168.85,-48.8 1273.15,-48.8 1273.15,-84.8"/>
<text text-anchor="middle" x="1221" y="-62.6" font-family="Times,serif" font-size="14.00">NavComponent</text>
</g>
<!-- NavComponent&#45;&gt;AppModule -->
<g id="edge12" class="edge">
<title>NavComponent&#45;&gt;AppModule</title>
<path fill="none" stroke="black" d="M1221,-84.82C1221,-102.17 1221,-125.8 1221,-125.8 1221,-125.8 1845.22,-125.8 1845.22,-125.8"/>
<polygon fill="black" stroke="black" points="1845.22,-129.3 1855.22,-125.8 1845.22,-122.3 1845.22,-129.3"/>
</g>
<!-- NotfoundcomponentComponent -->
<g id="node13" class="node">
<title>NotfoundcomponentComponent</title>
<polygon fill="#ffffb3" stroke="black" points="1150.7,-84.8 953.3,-84.8 953.3,-48.8 1150.7,-48.8 1150.7,-84.8"/>
<text text-anchor="middle" x="1052" y="-62.6" font-family="Times,serif" font-size="14.00">NotfoundcomponentComponent</text>
</g>
<!-- NotfoundcomponentComponent&#45;&gt;AppModule -->
<g id="edge13" class="edge">
<title>NotfoundcomponentComponent&#45;&gt;AppModule</title>
<path fill="none" stroke="black" d="M1052,-85.07C1052,-103.36 1052,-128.8 1052,-128.8 1052,-128.8 1845.1,-128.8 1845.1,-128.8"/>
<polygon fill="black" stroke="black" points="1845.1,-132.3 1855.1,-128.8 1845.1,-125.3 1845.1,-132.3"/>
</g>
<!-- RegisterComponent -->
<g id="node14" class="node">
<title>RegisterComponent</title>
<polygon fill="#ffffb3" stroke="black" points="934.98,-84.8 807.02,-84.8 807.02,-48.8 934.98,-48.8 934.98,-84.8"/>
<text text-anchor="middle" x="871" y="-62.6" font-family="Times,serif" font-size="14.00">RegisterComponent</text>
</g>
<!-- RegisterComponent&#45;&gt;AppModule -->
<g id="edge14" class="edge">
<title>RegisterComponent&#45;&gt;AppModule</title>
<path fill="none" stroke="black" d="M871,-84.91C871,-104.14 871,-131.8 871,-131.8 871,-131.8 1845.19,-131.8 1845.19,-131.8"/>
<polygon fill="black" stroke="black" points="1845.19,-135.3 1855.19,-131.8 1845.19,-128.3 1845.19,-135.3"/>
</g>
<!-- ReviewComponent -->
<g id="node15" class="node">
<title>ReviewComponent</title>
<polygon fill="#ffffb3" stroke="black" points="789.1,-84.8 664.9,-84.8 664.9,-48.8 789.1,-48.8 789.1,-84.8"/>
<text text-anchor="middle" x="727" y="-62.6" font-family="Times,serif" font-size="14.00">ReviewComponent</text>
</g>
<!-- ReviewComponent&#45;&gt;AppModule -->
<g id="edge15" class="edge">
<title>ReviewComponent&#45;&gt;AppModule</title>
<path fill="none" stroke="black" d="M727,-85.02C727,-105.17 727,-134.8 727,-134.8 727,-134.8 1845.01,-134.8 1845.01,-134.8"/>
<polygon fill="black" stroke="black" points="1845.01,-138.3 1855.01,-134.8 1845.01,-131.3 1845.01,-138.3"/>
</g>
<!-- SmalljobsComponent -->
<g id="node16" class="node">
<title>SmalljobsComponent</title>
<polygon fill="#ffffb3" stroke="black" points="646.84,-84.8 509.16,-84.8 509.16,-48.8 646.84,-48.8 646.84,-84.8"/>
<text text-anchor="middle" x="578" y="-62.6" font-family="Times,serif" font-size="14.00">SmalljobsComponent</text>
</g>
<!-- SmalljobsComponent&#45;&gt;AppModule -->
<g id="edge16" class="edge">
<title>SmalljobsComponent&#45;&gt;AppModule</title>
<path fill="none" stroke="black" d="M578,-85.08C578,-106.12 578,-137.8 578,-137.8 578,-137.8 1844.98,-137.8 1844.98,-137.8"/>
<polygon fill="black" stroke="black" points="1844.98,-141.3 1854.98,-137.8 1844.98,-134.3 1844.98,-141.3"/>
</g>
<!-- SmalljobscfgComponent -->
<g id="node17" class="node">
<title>SmalljobscfgComponent</title>
<polygon fill="#ffffb3" stroke="black" points="491.71,-84.8 336.29,-84.8 336.29,-48.8 491.71,-48.8 491.71,-84.8"/>
<text text-anchor="middle" x="414" y="-62.6" font-family="Times,serif" font-size="14.00">SmalljobscfgComponent</text>
</g>
<!-- SmalljobscfgComponent&#45;&gt;AppModule -->
<g id="edge17" class="edge">
<title>SmalljobscfgComponent&#45;&gt;AppModule</title>
<path fill="none" stroke="black" d="M414,-85.09C414,-107.01 414,-140.8 414,-140.8 414,-140.8 1845.01,-140.8 1845.01,-140.8"/>
<polygon fill="black" stroke="black" points="1845.01,-144.3 1855.01,-140.8 1845.01,-137.3 1845.01,-144.3"/>
</g>
<!-- WorkersComponent -->
<g id="node18" class="node">
<title>WorkersComponent</title>
<polygon fill="#ffffb3" stroke="black" points="318.53,-84.8 189.47,-84.8 189.47,-48.8 318.53,-48.8 318.53,-84.8"/>
<text text-anchor="middle" x="254" y="-62.6" font-family="Times,serif" font-size="14.00">WorkersComponent</text>
</g>
<!-- WorkersComponent&#45;&gt;AppModule -->
<g id="edge18" class="edge">
<title>WorkersComponent&#45;&gt;AppModule</title>
<path fill="none" stroke="black" d="M254,-85.05C254,-107.82 254,-143.8 254,-143.8 254,-143.8 1845.15,-143.8 1845.15,-143.8"/>
<polygon fill="black" stroke="black" points="1845.15,-147.3 1855.15,-143.8 1845.15,-140.3 1845.15,-147.3"/>
</g>
<!-- WorkerscfgComponent -->
<g id="node19" class="node">
<title>WorkerscfgComponent</title>
<polygon fill="#ffffb3" stroke="black" points="171.9,-84.8 24.1,-84.8 24.1,-48.8 171.9,-48.8 171.9,-84.8"/>
<text text-anchor="middle" x="98" y="-62.6" font-family="Times,serif" font-size="14.00">WorkerscfgComponent</text>
</g>
<!-- WorkerscfgComponent&#45;&gt;AppModule -->
<g id="edge19" class="edge">
<title>WorkerscfgComponent&#45;&gt;AppModule</title>
<path fill="none" stroke="black" d="M98,-84.95C98,-108.56 98,-146.8 98,-146.8 98,-146.8 1845.18,-146.8 1845.18,-146.8"/>
<polygon fill="black" stroke="black" points="1845.18,-150.3 1855.18,-146.8 1845.18,-143.3 1845.18,-150.3"/>
</g>
<!-- AppComponent  -->
<g id="node22" class="node">
<title>AppComponent </title>
<polygon fill="#80b1d3" stroke="black" points="1951.44,-214.8 1842.56,-214.8 1842.56,-178.8 1951.44,-178.8 1951.44,-214.8"/>
<text text-anchor="middle" x="1897" y="-192.6" font-family="Times,serif" font-size="14.00">AppComponent </text>
</g>
<!-- AppModule&#45;&gt;AppComponent  -->
<g id="edge21" class="edge">
<title>AppModule&#45;&gt;AppComponent </title>
<path fill="none" stroke="black" stroke-dasharray="1,5" d="M1897,-149.91C1897,-149.91 1897,-168.79 1897,-168.79"/>
<polygon fill="black" stroke="black" points="1893.5,-168.79 1897,-178.79 1900.5,-168.79 1893.5,-168.79"/>
</g>
<!-- AppRoutingModule -->
<g id="node21" class="node">
<title>AppRoutingModule</title>
<polygon fill="#8dd3c7" stroke="black" points="3162.27,-84.8 3159.27,-88.8 3138.27,-88.8 3135.27,-84.8 3033.73,-84.8 3033.73,-48.8 3162.27,-48.8 3162.27,-84.8"/>
<text text-anchor="middle" x="3098" y="-62.6" font-family="Times,serif" font-size="14.00">AppRoutingModule</text>
</g>
<!-- AppRoutingModule&#45;&gt;AppModule -->
<g id="edge20" class="edge">
<title>AppRoutingModule&#45;&gt;AppModule</title>
<path fill="none" stroke="black" d="M3098,-85.08C3098,-106.12 3098,-137.8 3098,-137.8 3098,-137.8 1948.69,-137.8 1948.69,-137.8"/>
<polygon fill="black" stroke="black" points="1948.69,-134.3 1938.69,-137.8 1948.69,-141.3 1948.69,-134.3"/>
</g>
<!-- MachineService -->
<g id="node23" class="node">
<title>MachineService</title>
<ellipse fill="#fdb462" stroke="black" cx="3554" cy="-66.8" rx="73.55" ry="18"/>
<text text-anchor="middle" x="3554" y="-62.6" font-family="Times,serif" font-size="14.00">MachineService</text>
</g>
<!-- MachineService&#45;&gt;AppModule -->
<g id="edge22" class="edge">
<title>MachineService&#45;&gt;AppModule</title>
<path fill="none" stroke="black" d="M3554,-84.95C3554,-108.56 3554,-146.8 3554,-146.8 3554,-146.8 1948.79,-146.8 1948.79,-146.8"/>
<polygon fill="black" stroke="black" points="1948.79,-143.3 1938.79,-146.8 1948.79,-150.3 1948.79,-143.3"/>
</g>
<!-- WorkersService -->
<g id="node24" class="node">
<title>WorkersService</title>
<ellipse fill="#fdb462" stroke="black" cx="3389" cy="-66.8" rx="73.47" ry="18"/>
<text text-anchor="middle" x="3389" y="-62.6" font-family="Times,serif" font-size="14.00">WorkersService</text>
</g>
<!-- WorkersService&#45;&gt;AppModule -->
<g id="edge23" class="edge">
<title>WorkersService&#45;&gt;AppModule</title>
<path fill="none" stroke="black" d="M3389,-85.05C3389,-107.82 3389,-143.8 3389,-143.8 3389,-143.8 1948.85,-143.8 1948.85,-143.8"/>
<polygon fill="black" stroke="black" points="1948.85,-140.3 1938.85,-143.8 1948.85,-147.3 1948.85,-140.3"/>
</g>
<!-- dataService -->
<g id="node25" class="node">
<title>dataService</title>
<ellipse fill="#fdb462" stroke="black" cx="3242" cy="-66.8" rx="56.16" ry="18"/>
<text text-anchor="middle" x="3242" y="-62.6" font-family="Times,serif" font-size="14.00">dataService</text>
</g>
<!-- dataService&#45;&gt;AppModule -->
<g id="edge24" class="edge">
<title>dataService&#45;&gt;AppModule</title>
<path fill="none" stroke="black" d="M3242,-85.09C3242,-107.01 3242,-140.8 3242,-140.8 3242,-140.8 1948.73,-140.8 1948.73,-140.8"/>
<polygon fill="black" stroke="black" points="1948.73,-137.3 1938.73,-140.8 1948.73,-144.3 1948.73,-137.3"/>
</g>
</g>
</svg>
