<?xml version="1.0" encoding="UTF-8" standalone="no"?>
<!DOCTYPE svg PUBLIC "-//W3C//DTD SVG 1.1//EN"
 "http://www.w3.org/Graphics/SVG/1.1/DTD/svg11.dtd">
<!-- Generated by graphviz version 2.47.3 (20210619.1520)
 -->
<!-- Title: dependencies Pages: 1 -->
<svg width="2997pt" height="247pt"
 viewBox="0.00 0.00 2997.00 246.80" xmlns="http://www.w3.org/2000/svg" xmlns:xlink="http://www.w3.org/1999/xlink">
<g id="graph0" class="graph" transform="scale(1 1) rotate(0) translate(4 242.8)">
<title>dependencies</title>
<polygon fill="white" stroke="transparent" points="-4,4 -4,-242.8 2993,-242.8 2993,4 -4,4"/>
<text text-anchor="middle" x="1494.5" y="-8.2" font-family="sans-serif" font-size="14.00">dependencies</text>
<g id="clust1" class="cluster">
<title>cluster_AppModule</title>
<polygon fill="none" stroke="black" stroke-dasharray="1,5" points="8,-32.8 8,-230.8 2981,-230.8 2981,-32.8 8,-32.8"/>
</g>
<g id="clust21" class="cluster">
<title>cluster_AppModule_providers</title>
<polygon fill="none" stroke="black" points="2515,-40.8 2515,-92.8 2973,-92.8 2973,-40.8 2515,-40.8"/>
</g>
<g id="clust18" class="cluster">
<title>cluster_AppModule_imports</title>
<polygon fill="none" stroke="black" points="2363,-40.8 2363,-92.8 2507,-92.8 2507,-40.8 2363,-40.8"/>
</g>
<g id="clust20" class="cluster">
<title>cluster_AppModule_bootstrap</title>
<polygon fill="none" stroke="black" points="1497,-170.8 1497,-222.8 1621,-222.8 1621,-170.8 1497,-170.8"/>
</g>
<g id="clust2" class="cluster">
<title>cluster_AppModule_declarations</title>
<polygon fill="none" stroke="black" points="16,-40.8 16,-92.8 2355,-92.8 2355,-40.8 16,-40.8"/>
</g>
<!-- AppComponent -->
<g id="node1" class="node">
<title>AppComponent</title>
<polygon fill="#ffffb3" stroke="black" points="2346.94,-84.8 2241.06,-84.8 2241.06,-48.8 2346.94,-48.8 2346.94,-84.8"/>
<text text-anchor="middle" x="2294" y="-62.6" font-family="Times,serif" font-size="14.00">AppComponent</text>
</g>
<!-- AppModule -->
<g id="node16" class="node">
<title>AppModule</title>
<polygon fill="#8dd3c7" stroke="black" points="1600.66,-149.8 1597.66,-153.8 1576.66,-153.8 1573.66,-149.8 1517.34,-149.8 1517.34,-113.8 1600.66,-113.8 1600.66,-149.8"/>
<text text-anchor="middle" x="1559" y="-127.6" font-family="Times,serif" font-size="14.00">AppModule</text>
</g>
<!-- AppComponent&#45;&gt;AppModule -->
<g id="edge1" class="edge">
<title>AppComponent&#45;&gt;AppModule</title>
<path fill="none" stroke="black" d="M2294,-84.91C2294,-104.14 2294,-131.8 2294,-131.8 2294,-131.8 1610.89,-131.8 1610.89,-131.8"/>
<polygon fill="black" stroke="black" points="1610.89,-128.3 1600.89,-131.8 1610.89,-135.3 1610.89,-128.3"/>
</g>
<!-- ConfigurationComponent -->
<g id="node2" class="node">
<title>ConfigurationComponent</title>
<polygon fill="#ffffb3" stroke="black" points="2222.88,-84.8 2063.12,-84.8 2063.12,-48.8 2222.88,-48.8 2222.88,-84.8"/>
<text text-anchor="middle" x="2143" y="-62.6" font-family="Times,serif" font-size="14.00">ConfigurationComponent</text>
</g>
<!-- ConfigurationComponent&#45;&gt;AppModule -->
<g id="edge2" class="edge">
<title>ConfigurationComponent&#45;&gt;AppModule</title>
<path fill="none" stroke="black" d="M2143,-85.07C2143,-103.36 2143,-128.8 2143,-128.8 2143,-128.8 1611,-128.8 1611,-128.8"/>
<polygon fill="black" stroke="black" points="1611,-125.3 1601,-128.8 1611,-132.3 1611,-125.3"/>
</g>
<!-- DivideComponent -->
<g id="node3" class="node">
<title>DivideComponent</title>
<polygon fill="#ffffb3" stroke="black" points="2044.94,-84.8 1925.06,-84.8 1925.06,-48.8 2044.94,-48.8 2044.94,-84.8"/>
<text text-anchor="middle" x="1985" y="-62.6" font-family="Times,serif" font-size="14.00">DivideComponent</text>
</g>
<!-- DivideComponent&#45;&gt;AppModule -->
<g id="edge3" class="edge">
<title>DivideComponent&#45;&gt;AppModule</title>
<path fill="none" stroke="black" d="M1985,-84.83C1985,-101.86 1985,-124.8 1985,-124.8 1985,-124.8 1611.01,-124.8 1611.01,-124.8"/>
<polygon fill="black" stroke="black" points="1611.01,-121.3 1601.01,-124.8 1611.01,-128.3 1611.01,-121.3"/>
</g>
<!-- FindjobComponent -->
<g id="node4" class="node">
<title>FindjobComponent</title>
<polygon fill="#ffffb3" stroke="black" points="1907.4,-84.8 1782.6,-84.8 1782.6,-48.8 1907.4,-48.8 1907.4,-84.8"/>
<text text-anchor="middle" x="1845" y="-62.6" font-family="Times,serif" font-size="14.00">FindjobComponent</text>
</g>
<!-- FindjobComponent&#45;&gt;AppModule -->
<g id="edge4" class="edge">
<title>FindjobComponent&#45;&gt;AppModule</title>
<path fill="none" stroke="black" d="M1845,-84.81C1845,-100.85 1845,-121.8 1845,-121.8 1845,-121.8 1610.89,-121.8 1610.89,-121.8"/>
<polygon fill="black" stroke="black" points="1610.89,-118.3 1600.89,-121.8 1610.89,-125.3 1610.89,-118.3"/>
</g>
<!-- FrontpageComponent -->
<g id="node5" class="node">
<title>FrontpageComponent</title>
<polygon fill="#ffffb3" stroke="black" points="1765.1,-84.8 1626.9,-84.8 1626.9,-48.8 1765.1,-48.8 1765.1,-84.8"/>
<text text-anchor="middle" x="1696" y="-62.6" font-family="Times,serif" font-size="14.00">FrontpageComponent</text>
</g>
<!-- FrontpageComponent&#45;&gt;AppModule -->
<g id="edge5" class="edge">
<title>FrontpageComponent&#45;&gt;AppModule</title>
<path fill="none" stroke="black" d="M1696,-84.92C1696,-99.58 1696,-117.8 1696,-117.8 1696,-117.8 1610.85,-117.8 1610.85,-117.8"/>
<polygon fill="black" stroke="black" points="1610.85,-114.3 1600.85,-117.8 1610.85,-121.3 1610.85,-114.3"/>
</g>
<!-- JobComponent -->
<g id="node6" class="node">
<title>JobComponent</title>
<polygon fill="#ffffb3" stroke="black" points="1609.28,-84.8 1508.72,-84.8 1508.72,-48.8 1609.28,-48.8 1609.28,-84.8"/>
<text text-anchor="middle" x="1559" y="-62.6" font-family="Times,serif" font-size="14.00">JobComponent</text>
</g>
<!-- JobComponent&#45;&gt;AppModule -->
<g id="edge6" class="edge">
<title>JobComponent&#45;&gt;AppModule</title>
<path fill="none" stroke="black" d="M1559,-84.91C1559,-84.91 1559,-103.79 1559,-103.79"/>
<polygon fill="black" stroke="black" points="1555.5,-103.79 1559,-113.79 1562.5,-103.79 1555.5,-103.79"/>
</g>
<!-- LayoutmachineComponent -->
<g id="node7" class="node">
<title>LayoutmachineComponent</title>
<polygon fill="#ffffb3" stroke="black" points="1490.42,-84.8 1321.58,-84.8 1321.58,-48.8 1490.42,-48.8 1490.42,-84.8"/>
<text text-anchor="middle" x="1406" y="-62.6" font-family="Times,serif" font-size="14.00">LayoutmachineComponent</text>
</g>
<!-- LayoutmachineComponent&#45;&gt;AppModule -->
<g id="edge7" class="edge">
<title>LayoutmachineComponent&#45;&gt;AppModule</title>
<path fill="none" stroke="black" d="M1406,-84.92C1406,-99.58 1406,-117.8 1406,-117.8 1406,-117.8 1507.19,-117.8 1507.19,-117.8"/>
<polygon fill="black" stroke="black" points="1507.19,-121.3 1517.19,-117.8 1507.19,-114.3 1507.19,-121.3"/>
</g>
<!-- LayoutworkersComponent -->
<g id="node8" class="node">
<title>LayoutworkersComponent</title>
<polygon fill="#ffffb3" stroke="black" points="1304.08,-84.8 1137.92,-84.8 1137.92,-48.8 1304.08,-48.8 1304.08,-84.8"/>
<text text-anchor="middle" x="1221" y="-62.6" font-family="Times,serif" font-size="14.00">LayoutworkersComponent</text>
</g>
<!-- LayoutworkersComponent&#45;&gt;AppModule -->
<g id="edge8" class="edge">
<title>LayoutworkersComponent&#45;&gt;AppModule</title>
<path fill="none" stroke="black" d="M1221,-84.81C1221,-100.85 1221,-121.8 1221,-121.8 1221,-121.8 1507.22,-121.8 1507.22,-121.8"/>
<polygon fill="black" stroke="black" points="1507.22,-125.3 1517.22,-121.8 1507.22,-118.3 1507.22,-125.3"/>
</g>
<!-- MachinecfgComponent -->
<g id="node9" class="node">
<title>MachinecfgComponent</title>
<polygon fill="#ffffb3" stroke="black" points="1120.19,-84.8 971.81,-84.8 971.81,-48.8 1120.19,-48.8 1120.19,-84.8"/>
<text text-anchor="middle" x="1046" y="-62.6" font-family="Times,serif" font-size="14.00">MachinecfgComponent</text>
</g>
<!-- MachinecfgComponent&#45;&gt;AppModule -->
<g id="edge9" class="edge">
<title>MachinecfgComponent&#45;&gt;AppModule</title>
<path fill="none" stroke="black" d="M1046,-84.83C1046,-101.86 1046,-124.8 1046,-124.8 1046,-124.8 1507.02,-124.8 1507.02,-124.8"/>
<polygon fill="black" stroke="black" points="1507.02,-128.3 1517.02,-124.8 1507.02,-121.3 1507.02,-128.3"/>
</g>
<!-- NavComponent -->
<g id="node10" class="node">
<title>NavComponent</title>
<polygon fill="#ffffb3" stroke="black" points="954.15,-84.8 849.85,-84.8 849.85,-48.8 954.15,-48.8 954.15,-84.8"/>
<text text-anchor="middle" x="902" y="-62.6" font-family="Times,serif" font-size="14.00">NavComponent</text>
</g>
<!-- NavComponent&#45;&gt;AppModule -->
<g id="edge10" class="edge">
<title>NavComponent&#45;&gt;AppModule</title>
<path fill="none" stroke="black" d="M902,-85.07C902,-103.36 902,-128.8 902,-128.8 902,-128.8 1507.15,-128.8 1507.15,-128.8"/>
<polygon fill="black" stroke="black" points="1507.15,-132.3 1517.15,-128.8 1507.15,-125.3 1507.15,-132.3"/>
</g>
<!-- NotfoundcomponentComponent -->
<g id="node11" class="node">
<title>NotfoundcomponentComponent</title>
<polygon fill="#ffffb3" stroke="black" points="831.7,-84.8 634.3,-84.8 634.3,-48.8 831.7,-48.8 831.7,-84.8"/>
<text text-anchor="middle" x="733" y="-62.6" font-family="Times,serif" font-size="14.00">NotfoundcomponentComponent</text>
</g>
<!-- NotfoundcomponentComponent&#45;&gt;AppModule -->
<g id="edge11" class="edge">
<title>NotfoundcomponentComponent&#45;&gt;AppModule</title>
<path fill="none" stroke="black" d="M733,-84.91C733,-104.14 733,-131.8 733,-131.8 733,-131.8 1507.19,-131.8 1507.19,-131.8"/>
<polygon fill="black" stroke="black" points="1507.19,-135.3 1517.19,-131.8 1507.19,-128.3 1507.19,-135.3"/>
</g>
<!-- ReviewComponent -->
<g id="node12" class="node">
<title>ReviewComponent</title>
<polygon fill="#ffffb3" stroke="black" points="616.1,-84.8 491.9,-84.8 491.9,-48.8 616.1,-48.8 616.1,-84.8"/>
<text text-anchor="middle" x="554" y="-62.6" font-family="Times,serif" font-size="14.00">ReviewComponent</text>
</g>
<!-- ReviewComponent&#45;&gt;AppModule -->
<g id="edge12" class="edge">
<title>ReviewComponent&#45;&gt;AppModule</title>
<path fill="none" stroke="black" d="M554,-84.93C554,-105.37 554,-135.8 554,-135.8 554,-135.8 1507.1,-135.8 1507.1,-135.8"/>
<polygon fill="black" stroke="black" points="1507.1,-139.3 1517.1,-135.8 1507.1,-132.3 1507.1,-139.3"/>
</g>
<!-- SmalljobsComponent -->
<g id="node13" class="node">
<title>SmalljobsComponent</title>
<polygon fill="#ffffb3" stroke="black" points="473.84,-84.8 336.16,-84.8 336.16,-48.8 473.84,-48.8 473.84,-84.8"/>
<text text-anchor="middle" x="405" y="-62.6" font-family="Times,serif" font-size="14.00">SmalljobsComponent</text>
</g>
<!-- SmalljobsComponent&#45;&gt;AppModule -->
<g id="edge13" class="edge">
<title>SmalljobsComponent&#45;&gt;AppModule</title>
<path fill="none" stroke="black" d="M405,-84.84C405,-106.46 405,-139.8 405,-139.8 405,-139.8 1507.25,-139.8 1507.25,-139.8"/>
<polygon fill="black" stroke="black" points="1507.25,-143.3 1517.25,-139.8 1507.25,-136.3 1507.25,-143.3"/>
</g>
<!-- WorkersComponent -->
<g id="node14" class="node">
<title>WorkersComponent</title>
<polygon fill="#ffffb3" stroke="black" points="318.53,-84.8 189.47,-84.8 189.47,-48.8 318.53,-48.8 318.53,-84.8"/>
<text text-anchor="middle" x="254" y="-62.6" font-family="Times,serif" font-size="14.00">WorkersComponent</text>
</g>
<!-- WorkersComponent&#45;&gt;AppModule -->
<g id="edge14" class="edge">
<title>WorkersComponent&#45;&gt;AppModule</title>
<path fill="none" stroke="black" d="M254,-84.81C254,-107.29 254,-142.8 254,-142.8 254,-142.8 1507.06,-142.8 1507.06,-142.8"/>
<polygon fill="black" stroke="black" points="1507.06,-146.3 1517.06,-142.8 1507.06,-139.3 1507.06,-146.3"/>
</g>
<!-- WorkerscfgComponent -->
<g id="node15" class="node">
<title>WorkerscfgComponent</title>
<polygon fill="#ffffb3" stroke="black" points="171.9,-84.8 24.1,-84.8 24.1,-48.8 171.9,-48.8 171.9,-84.8"/>
<text text-anchor="middle" x="98" y="-62.6" font-family="Times,serif" font-size="14.00">WorkerscfgComponent</text>
</g>
<!-- WorkerscfgComponent&#45;&gt;AppModule -->
<g id="edge15" class="edge">
<title>WorkerscfgComponent&#45;&gt;AppModule</title>
<path fill="none" stroke="black" d="M98,-84.95C98,-108.56 98,-146.8 98,-146.8 98,-146.8 1507.24,-146.8 1507.24,-146.8"/>
<polygon fill="black" stroke="black" points="1507.24,-150.3 1517.24,-146.8 1507.24,-143.3 1507.24,-150.3"/>
</g>
<!-- AppComponent  -->
<g id="node18" class="node">
<title>AppComponent </title>
<polygon fill="#80b1d3" stroke="black" points="1613.44,-214.8 1504.56,-214.8 1504.56,-178.8 1613.44,-178.8 1613.44,-214.8"/>
<text text-anchor="middle" x="1559" y="-192.6" font-family="Times,serif" font-size="14.00">AppComponent </text>
</g>
<!-- AppModule&#45;&gt;AppComponent  -->
<g id="edge17" class="edge">
<title>AppModule&#45;&gt;AppComponent </title>
<path fill="none" stroke="black" stroke-dasharray="1,5" d="M1559,-149.91C1559,-149.91 1559,-168.79 1559,-168.79"/>
<polygon fill="black" stroke="black" points="1555.5,-168.79 1559,-178.79 1562.5,-168.79 1555.5,-168.79"/>
</g>
<!-- AppRoutingModule -->
<g id="node17" class="node">
<title>AppRoutingModule</title>
<polygon fill="#8dd3c7" stroke="black" points="2499.27,-84.8 2496.27,-88.8 2475.27,-88.8 2472.27,-84.8 2370.73,-84.8 2370.73,-48.8 2499.27,-48.8 2499.27,-84.8"/>
<text text-anchor="middle" x="2435" y="-62.6" font-family="Times,serif" font-size="14.00">AppRoutingModule</text>
</g>
<!-- AppRoutingModule&#45;&gt;AppModule -->
<g id="edge16" class="edge">
<title>AppRoutingModule&#45;&gt;AppModule</title>
<path fill="none" stroke="black" d="M2435,-84.93C2435,-105.37 2435,-135.8 2435,-135.8 2435,-135.8 1610.66,-135.8 1610.66,-135.8"/>
<polygon fill="black" stroke="black" points="1610.66,-132.3 1600.66,-135.8 1610.66,-139.3 1610.66,-132.3"/>
</g>
<!-- MachineService -->
<g id="node19" class="node">
<title>MachineService</title>
<ellipse fill="#fdb462" stroke="black" cx="2891" cy="-66.8" rx="73.55" ry="18"/>
<text text-anchor="middle" x="2891" y="-62.6" font-family="Times,serif" font-size="14.00">MachineService</text>
</g>
<!-- MachineService&#45;&gt;AppModule -->
<g id="edge18" class="edge">
<title>MachineService&#45;&gt;AppModule</title>
<path fill="none" stroke="black" d="M2891,-84.95C2891,-108.56 2891,-146.8 2891,-146.8 2891,-146.8 1610.69,-146.8 1610.69,-146.8"/>
<polygon fill="black" stroke="black" points="1610.69,-143.3 1600.69,-146.8 1610.69,-150.3 1610.69,-143.3"/>
</g>
<!-- WorkersService -->
<g id="node20" class="node">
<title>WorkersService</title>
<ellipse fill="#fdb462" stroke="black" cx="2726" cy="-66.8" rx="73.47" ry="18"/>
<text text-anchor="middle" x="2726" y="-62.6" font-family="Times,serif" font-size="14.00">WorkersService</text>
</g>
<!-- WorkersService&#45;&gt;AppModule -->
<g id="edge19" class="edge">
<title>WorkersService&#45;&gt;AppModule</title>
<path fill="none" stroke="black" d="M2726,-84.81C2726,-107.29 2726,-142.8 2726,-142.8 2726,-142.8 1610.88,-142.8 1610.88,-142.8"/>
<polygon fill="black" stroke="black" points="1610.88,-139.3 1600.88,-142.8 1610.88,-146.3 1610.88,-139.3"/>
</g>
<!-- dataService -->
<g id="node21" class="node">
<title>dataService</title>
<ellipse fill="#fdb462" stroke="black" cx="2579" cy="-66.8" rx="56.16" ry="18"/>
<text text-anchor="middle" x="2579" y="-62.6" font-family="Times,serif" font-size="14.00">dataService</text>
</g>
<!-- dataService&#45;&gt;AppModule -->
<g id="edge20" class="edge">
<title>dataService&#45;&gt;AppModule</title>
<path fill="none" stroke="black" d="M2579,-84.84C2579,-106.46 2579,-139.8 2579,-139.8 2579,-139.8 1610.89,-139.8 1610.89,-139.8"/>
<polygon fill="black" stroke="black" points="1610.89,-136.3 1600.89,-139.8 1610.89,-143.3 1610.89,-136.3"/>
</g>
</g>
</svg>
