<?xml version="1.0" encoding="UTF-8" standalone="no"?>
<!DOCTYPE svg PUBLIC "-//W3C//DTD SVG 1.1//EN"
 "http://www.w3.org/Graphics/SVG/1.1/DTD/svg11.dtd">
<!-- Generated by graphviz version 2.47.3 (20210619.1520)
 -->
<!-- Title: dependencies Pages: 1 -->
<svg width="3660pt" height="247pt"
 viewBox="0.00 0.00 3660.00 246.80" xmlns="http://www.w3.org/2000/svg" xmlns:xlink="http://www.w3.org/1999/xlink">
<g id="graph0" class="graph" transform="scale(1 1) rotate(0) translate(4 242.8)">
<title>dependencies</title>
<polygon fill="white" stroke="transparent" points="-4,4 -4,-242.8 3656,-242.8 3656,4 -4,4"/>
<text text-anchor="middle" x="1826" y="-8.2" font-family="sans-serif" font-size="14.00">dependencies</text>
<g id="clust1" class="cluster">
<title>cluster_AppModule</title>
<polygon fill="none" stroke="black" stroke-dasharray="1,5" points="8,-32.8 8,-230.8 3644,-230.8 3644,-32.8 8,-32.8"/>
</g>
<g id="clust2" class="cluster">
<title>cluster_AppModule_declarations</title>
<polygon fill="none" stroke="black" points="634,-40.8 634,-92.8 3636,-92.8 3636,-40.8 634,-40.8"/>
</g>
<g id="clust22" class="cluster">
<title>cluster_AppModule_imports</title>
<polygon fill="none" stroke="black" points="482,-40.8 482,-92.8 626,-92.8 626,-40.8 482,-40.8"/>
</g>
<g id="clust24" class="cluster">
<title>cluster_AppModule_bootstrap</title>
<polygon fill="none" stroke="black" points="1777,-170.8 1777,-222.8 1901,-222.8 1901,-170.8 1777,-170.8"/>
</g>
<g id="clust25" class="cluster">
<title>cluster_AppModule_providers</title>
<polygon fill="none" stroke="black" points="16,-40.8 16,-92.8 474,-92.8 474,-40.8 16,-40.8"/>
</g>
<!-- AppComponent -->
<g id="node1" class="node">
<title>AppComponent</title>
<polygon fill="#ffffb3" stroke="black" points="3627.94,-84.8 3522.06,-84.8 3522.06,-48.8 3627.94,-48.8 3627.94,-84.8"/>
<text text-anchor="middle" x="3575" y="-62.6" font-family="Times,serif" font-size="14.00">AppComponent</text>
</g>
<!-- AppModule -->
<g id="node20" class="node">
<title>AppModule</title>
<polygon fill="#8dd3c7" stroke="black" points="1880.66,-149.8 1877.66,-153.8 1856.66,-153.8 1853.66,-149.8 1797.34,-149.8 1797.34,-113.8 1880.66,-113.8 1880.66,-149.8"/>
<text text-anchor="middle" x="1839" y="-127.6" font-family="Times,serif" font-size="14.00">AppModule</text>
</g>
<!-- AppComponent&#45;&gt;AppModule -->
<g id="edge1" class="edge">
<title>AppComponent&#45;&gt;AppModule</title>
<path fill="none" stroke="black" d="M3575,-84.95C3575,-108.56 3575,-146.8 3575,-146.8 3575,-146.8 1891.05,-146.8 1891.05,-146.8"/>
<polygon fill="black" stroke="black" points="1891.05,-143.3 1881.05,-146.8 1891.05,-150.3 1891.05,-143.3"/>
</g>
<!-- AttendantcfgComponent -->
<g id="node2" class="node">
<title>AttendantcfgComponent</title>
<polygon fill="#ffffb3" stroke="black" points="3504.42,-84.8 3349.58,-84.8 3349.58,-48.8 3504.42,-48.8 3504.42,-84.8"/>
<text text-anchor="middle" x="3427" y="-62.6" font-family="Times,serif" font-size="14.00">AttendantcfgComponent</text>
</g>
<!-- AttendantcfgComponent&#45;&gt;AppModule -->
<g id="edge2" class="edge">
<title>AttendantcfgComponent&#45;&gt;AppModule</title>
<path fill="none" stroke="black" d="M3427,-85.05C3427,-107.82 3427,-143.8 3427,-143.8 3427,-143.8 1890.66,-143.8 1890.66,-143.8"/>
<polygon fill="black" stroke="black" points="1890.66,-140.3 1880.66,-143.8 1890.66,-147.3 1890.66,-140.3"/>
</g>
<!-- ConfigurationComponent -->
<g id="node3" class="node">
<title>ConfigurationComponent</title>
<polygon fill="#ffffb3" stroke="black" points="3331.88,-84.8 3172.12,-84.8 3172.12,-48.8 3331.88,-48.8 3331.88,-84.8"/>
<text text-anchor="middle" x="3252" y="-62.6" font-family="Times,serif" font-size="14.00">ConfigurationComponent</text>
</g>
<!-- ConfigurationComponent&#45;&gt;AppModule -->
<g id="edge3" class="edge">
<title>ConfigurationComponent&#45;&gt;AppModule</title>
<path fill="none" stroke="black" d="M3252,-85.09C3252,-107.01 3252,-140.8 3252,-140.8 3252,-140.8 1890.9,-140.8 1890.9,-140.8"/>
<polygon fill="black" stroke="black" points="1890.9,-137.3 1880.9,-140.8 1890.9,-144.3 1890.9,-137.3"/>
</g>
<!-- DivideComponent -->
<g id="node4" class="node">
<title>DivideComponent</title>
<polygon fill="#ffffb3" stroke="black" points="3153.94,-84.8 3034.06,-84.8 3034.06,-48.8 3153.94,-48.8 3153.94,-84.8"/>
<text text-anchor="middle" x="3094" y="-62.6" font-family="Times,serif" font-size="14.00">DivideComponent</text>
</g>
<!-- DivideComponent&#45;&gt;AppModule -->
<g id="edge4" class="edge">
<title>DivideComponent&#45;&gt;AppModule</title>
<path fill="none" stroke="black" d="M3094,-85.08C3094,-106.12 3094,-137.8 3094,-137.8 3094,-137.8 1890.76,-137.8 1890.76,-137.8"/>
<polygon fill="black" stroke="black" points="1890.76,-134.3 1880.76,-137.8 1890.76,-141.3 1890.76,-134.3"/>
</g>
<!-- FindjobComponent -->
<g id="node5" class="node">
<title>FindjobComponent</title>
<polygon fill="#ffffb3" stroke="black" points="3016.4,-84.8 2891.6,-84.8 2891.6,-48.8 3016.4,-48.8 3016.4,-84.8"/>
<text text-anchor="middle" x="2954" y="-62.6" font-family="Times,serif" font-size="14.00">FindjobComponent</text>
</g>
<!-- FindjobComponent&#45;&gt;AppModule -->
<g id="edge5" class="edge">
<title>FindjobComponent&#45;&gt;AppModule</title>
<path fill="none" stroke="black" d="M2954,-85.02C2954,-105.17 2954,-134.8 2954,-134.8 2954,-134.8 1890.67,-134.8 1890.67,-134.8"/>
<polygon fill="black" stroke="black" points="1890.67,-131.3 1880.67,-134.8 1890.67,-138.3 1890.67,-131.3"/>
</g>
<!-- FrontpageComponent -->
<g id="node6" class="node">
<title>FrontpageComponent</title>
<polygon fill="#ffffb3" stroke="black" points="2874.1,-84.8 2735.9,-84.8 2735.9,-48.8 2874.1,-48.8 2874.1,-84.8"/>
<text text-anchor="middle" x="2805" y="-62.6" font-family="Times,serif" font-size="14.00">FrontpageComponent</text>
</g>
<!-- FrontpageComponent&#45;&gt;AppModule -->
<g id="edge6" class="edge">
<title>FrontpageComponent&#45;&gt;AppModule</title>
<path fill="none" stroke="black" d="M2805,-84.91C2805,-104.14 2805,-131.8 2805,-131.8 2805,-131.8 1890.82,-131.8 1890.82,-131.8"/>
<polygon fill="black" stroke="black" points="1890.82,-128.3 1880.82,-131.8 1890.82,-135.3 1890.82,-128.3"/>
</g>
<!-- JobComponent -->
<g id="node7" class="node">
<title>JobComponent</title>
<polygon fill="#ffffb3" stroke="black" points="2718.28,-84.8 2617.72,-84.8 2617.72,-48.8 2718.28,-48.8 2718.28,-84.8"/>
<text text-anchor="middle" x="2668" y="-62.6" font-family="Times,serif" font-size="14.00">JobComponent</text>
</g>
<!-- JobComponent&#45;&gt;AppModule -->
<g id="edge7" class="edge">
<title>JobComponent&#45;&gt;AppModule</title>
<path fill="none" stroke="black" d="M2668,-85.07C2668,-103.36 2668,-128.8 2668,-128.8 2668,-128.8 1890.68,-128.8 1890.68,-128.8"/>
<polygon fill="black" stroke="black" points="1890.68,-125.3 1880.68,-128.8 1890.68,-132.3 1890.68,-125.3"/>
</g>
<!-- LayoutmachineComponent -->
<g id="node8" class="node">
<title>LayoutmachineComponent</title>
<polygon fill="#ffffb3" stroke="black" points="2599.42,-84.8 2430.58,-84.8 2430.58,-48.8 2599.42,-48.8 2599.42,-84.8"/>
<text text-anchor="middle" x="2515" y="-62.6" font-family="Times,serif" font-size="14.00">LayoutmachineComponent</text>
</g>
<!-- LayoutmachineComponent&#45;&gt;AppModule -->
<g id="edge8" class="edge">
<title>LayoutmachineComponent&#45;&gt;AppModule</title>
<path fill="none" stroke="black" d="M2515,-84.82C2515,-102.17 2515,-125.8 2515,-125.8 2515,-125.8 1890.78,-125.8 1890.78,-125.8"/>
<polygon fill="black" stroke="black" points="1890.78,-122.3 1880.78,-125.8 1890.78,-129.3 1890.78,-122.3"/>
</g>
<!-- LayoutworkersComponent -->
<g id="node9" class="node">
<title>LayoutworkersComponent</title>
<polygon fill="#ffffb3" stroke="black" points="2413.08,-84.8 2246.92,-84.8 2246.92,-48.8 2413.08,-48.8 2413.08,-84.8"/>
<text text-anchor="middle" x="2330" y="-62.6" font-family="Times,serif" font-size="14.00">LayoutworkersComponent</text>
</g>
<!-- LayoutworkersComponent&#45;&gt;AppModule -->
<g id="edge9" class="edge">
<title>LayoutworkersComponent&#45;&gt;AppModule</title>
<path fill="none" stroke="black" d="M2330,-84.83C2330,-101.2 2330,-122.8 2330,-122.8 2330,-122.8 1890.86,-122.8 1890.86,-122.8"/>
<polygon fill="black" stroke="black" points="1890.86,-119.3 1880.86,-122.8 1890.86,-126.3 1890.86,-119.3"/>
</g>
<!-- LoginworkerComponent -->
<g id="node10" class="node">
<title>LoginworkerComponent</title>
<polygon fill="#ffffb3" stroke="black" points="2229.42,-84.8 2074.58,-84.8 2074.58,-48.8 2229.42,-48.8 2229.42,-84.8"/>
<text text-anchor="middle" x="2152" y="-62.6" font-family="Times,serif" font-size="14.00">LoginworkerComponent</text>
</g>
<!-- LoginworkerComponent&#45;&gt;AppModule -->
<g id="edge10" class="edge">
<title>LoginworkerComponent&#45;&gt;AppModule</title>
<path fill="none" stroke="black" d="M2152,-85.04C2152,-100.37 2152,-119.8 2152,-119.8 2152,-119.8 1890.89,-119.8 1890.89,-119.8"/>
<polygon fill="black" stroke="black" points="1890.89,-116.3 1880.89,-119.8 1890.89,-123.3 1890.89,-116.3"/>
</g>
<!-- MachinecfgComponent -->
<g id="node11" class="node">
<title>MachinecfgComponent</title>
<polygon fill="#ffffb3" stroke="black" points="2057.19,-84.8 1908.81,-84.8 1908.81,-48.8 2057.19,-48.8 2057.19,-84.8"/>
<text text-anchor="middle" x="1983" y="-62.6" font-family="Times,serif" font-size="14.00">MachinecfgComponent</text>
</g>
<!-- MachinecfgComponent&#45;&gt;AppModule -->
<g id="edge11" class="edge">
<title>MachinecfgComponent&#45;&gt;AppModule</title>
<path fill="none" stroke="black" d="M1983,-84.85C1983,-99.17 1983,-116.8 1983,-116.8 1983,-116.8 1891.04,-116.8 1891.04,-116.8"/>
<polygon fill="black" stroke="black" points="1891.04,-113.3 1881.04,-116.8 1891.04,-120.3 1891.04,-113.3"/>
</g>
<!-- NavComponent -->
<g id="node12" class="node">
<title>NavComponent</title>
<polygon fill="#ffffb3" stroke="black" points="1891.15,-84.8 1786.85,-84.8 1786.85,-48.8 1891.15,-48.8 1891.15,-84.8"/>
<text text-anchor="middle" x="1839" y="-62.6" font-family="Times,serif" font-size="14.00">NavComponent</text>
</g>
<!-- NavComponent&#45;&gt;AppModule -->
<g id="edge12" class="edge">
<title>NavComponent&#45;&gt;AppModule</title>
<path fill="none" stroke="black" d="M1839,-84.91C1839,-84.91 1839,-103.79 1839,-103.79"/>
<polygon fill="black" stroke="black" points="1835.5,-103.79 1839,-113.79 1842.5,-103.79 1835.5,-103.79"/>
</g>
<!-- NotfoundcomponentComponent -->
<g id="node13" class="node">
<title>NotfoundcomponentComponent</title>
<polygon fill="#ffffb3" stroke="black" points="1768.7,-84.8 1571.3,-84.8 1571.3,-48.8 1768.7,-48.8 1768.7,-84.8"/>
<text text-anchor="middle" x="1670" y="-62.6" font-family="Times,serif" font-size="14.00">NotfoundcomponentComponent</text>
</g>
<!-- NotfoundcomponentComponent&#45;&gt;AppModule -->
<g id="edge13" class="edge">
<title>NotfoundcomponentComponent&#45;&gt;AppModule</title>
<path fill="none" stroke="black" d="M1670,-84.85C1670,-99.17 1670,-116.8 1670,-116.8 1670,-116.8 1787.22,-116.8 1787.22,-116.8"/>
<polygon fill="black" stroke="black" points="1787.22,-120.3 1797.22,-116.8 1787.22,-113.3 1787.22,-120.3"/>
</g>
<!-- RegisterComponent -->
<g id="node14" class="node">
<title>RegisterComponent</title>
<polygon fill="#ffffb3" stroke="black" points="1552.98,-84.8 1425.02,-84.8 1425.02,-48.8 1552.98,-48.8 1552.98,-84.8"/>
<text text-anchor="middle" x="1489" y="-62.6" font-family="Times,serif" font-size="14.00">RegisterComponent</text>
</g>
<!-- RegisterComponent&#45;&gt;AppModule -->
<g id="edge14" class="edge">
<title>RegisterComponent&#45;&gt;AppModule</title>
<path fill="none" stroke="black" d="M1489,-85.04C1489,-100.37 1489,-119.8 1489,-119.8 1489,-119.8 1787.13,-119.8 1787.13,-119.8"/>
<polygon fill="black" stroke="black" points="1787.13,-123.3 1797.13,-119.8 1787.13,-116.3 1787.13,-123.3"/>
</g>
<!-- ReviewComponent -->
<g id="node15" class="node">
<title>ReviewComponent</title>
<polygon fill="#ffffb3" stroke="black" points="1407.1,-84.8 1282.9,-84.8 1282.9,-48.8 1407.1,-48.8 1407.1,-84.8"/>
<text text-anchor="middle" x="1345" y="-62.6" font-family="Times,serif" font-size="14.00">ReviewComponent</text>
</g>
<!-- ReviewComponent&#45;&gt;AppModule -->
<g id="edge15" class="edge">
<title>ReviewComponent&#45;&gt;AppModule</title>
<path fill="none" stroke="black" d="M1345,-84.83C1345,-101.2 1345,-122.8 1345,-122.8 1345,-122.8 1787.31,-122.8 1787.31,-122.8"/>
<polygon fill="black" stroke="black" points="1787.31,-126.3 1797.31,-122.8 1787.31,-119.3 1787.31,-126.3"/>
</g>
<!-- SmalljobsComponent -->
<g id="node16" class="node">
<title>SmalljobsComponent</title>
<polygon fill="#ffffb3" stroke="black" points="1264.84,-84.8 1127.16,-84.8 1127.16,-48.8 1264.84,-48.8 1264.84,-84.8"/>
<text text-anchor="middle" x="1196" y="-62.6" font-family="Times,serif" font-size="14.00">SmalljobsComponent</text>
</g>
<!-- SmalljobsComponent&#45;&gt;AppModule -->
<g id="edge16" class="edge">
<title>SmalljobsComponent&#45;&gt;AppModule</title>
<path fill="none" stroke="black" d="M1196,-84.82C1196,-102.17 1196,-125.8 1196,-125.8 1196,-125.8 1787.31,-125.8 1787.31,-125.8"/>
<polygon fill="black" stroke="black" points="1787.31,-129.3 1797.31,-125.8 1787.31,-122.3 1787.31,-129.3"/>
</g>
<!-- SmalljobscfgComponent -->
<g id="node17" class="node">
<title>SmalljobscfgComponent</title>
<polygon fill="#ffffb3" stroke="black" points="1109.71,-84.8 954.29,-84.8 954.29,-48.8 1109.71,-48.8 1109.71,-84.8"/>
<text text-anchor="middle" x="1032" y="-62.6" font-family="Times,serif" font-size="14.00">SmalljobscfgComponent</text>
</g>
<!-- SmalljobscfgComponent&#45;&gt;AppModule -->
<g id="edge17" class="edge">
<title>SmalljobscfgComponent&#45;&gt;AppModule</title>
<path fill="none" stroke="black" d="M1032,-85.07C1032,-103.36 1032,-128.8 1032,-128.8 1032,-128.8 1787.31,-128.8 1787.31,-128.8"/>
<polygon fill="black" stroke="black" points="1787.31,-132.3 1797.31,-128.8 1787.31,-125.3 1787.31,-132.3"/>
</g>
<!-- WorkersComponent -->
<g id="node18" class="node">
<title>WorkersComponent</title>
<polygon fill="#ffffb3" stroke="black" points="936.53,-84.8 807.47,-84.8 807.47,-48.8 936.53,-48.8 936.53,-84.8"/>
<text text-anchor="middle" x="872" y="-62.6" font-family="Times,serif" font-size="14.00">WorkersComponent</text>
</g>
<!-- WorkersComponent&#45;&gt;AppModule -->
<g id="edge18" class="edge">
<title>WorkersComponent&#45;&gt;AppModule</title>
<path fill="none" stroke="black" d="M872,-84.91C872,-104.14 872,-131.8 872,-131.8 872,-131.8 1787.14,-131.8 1787.14,-131.8"/>
<polygon fill="black" stroke="black" points="1787.14,-135.3 1797.14,-131.8 1787.14,-128.3 1787.14,-135.3"/>
</g>
<!-- WorkerscfgComponent -->
<g id="node19" class="node">
<title>WorkerscfgComponent</title>
<polygon fill="#ffffb3" stroke="black" points="789.9,-84.8 642.1,-84.8 642.1,-48.8 789.9,-48.8 789.9,-84.8"/>
<text text-anchor="middle" x="716" y="-62.6" font-family="Times,serif" font-size="14.00">WorkerscfgComponent</text>
</g>
<!-- WorkerscfgComponent&#45;&gt;AppModule -->
<g id="edge19" class="edge">
<title>WorkerscfgComponent&#45;&gt;AppModule</title>
<path fill="none" stroke="black" d="M716,-85.02C716,-105.17 716,-134.8 716,-134.8 716,-134.8 1787.03,-134.8 1787.03,-134.8"/>
<polygon fill="black" stroke="black" points="1787.03,-138.3 1797.03,-134.8 1787.03,-131.3 1787.03,-138.3"/>
</g>
<!-- AppComponent  -->
<g id="node22" class="node">
<title>AppComponent </title>
<polygon fill="#80b1d3" stroke="black" points="1893.44,-214.8 1784.56,-214.8 1784.56,-178.8 1893.44,-178.8 1893.44,-214.8"/>
<text text-anchor="middle" x="1839" y="-192.6" font-family="Times,serif" font-size="14.00">AppComponent </text>
</g>
<!-- AppModule&#45;&gt;AppComponent  -->
<g id="edge21" class="edge">
<title>AppModule&#45;&gt;AppComponent </title>
<path fill="none" stroke="black" stroke-dasharray="1,5" d="M1839,-149.91C1839,-149.91 1839,-168.79 1839,-168.79"/>
<polygon fill="black" stroke="black" points="1835.5,-168.79 1839,-178.79 1842.5,-168.79 1835.5,-168.79"/>
</g>
<!-- AppRoutingModule -->
<g id="node21" class="node">
<title>AppRoutingModule</title>
<polygon fill="#8dd3c7" stroke="black" points="618.27,-84.8 615.27,-88.8 594.27,-88.8 591.27,-84.8 489.73,-84.8 489.73,-48.8 618.27,-48.8 618.27,-84.8"/>
<text text-anchor="middle" x="554" y="-62.6" font-family="Times,serif" font-size="14.00">AppRoutingModule</text>
</g>
<!-- AppRoutingModule&#45;&gt;AppModule -->
<g id="edge20" class="edge">
<title>AppRoutingModule&#45;&gt;AppModule</title>
<path fill="none" stroke="black" d="M554,-85.08C554,-106.12 554,-137.8 554,-137.8 554,-137.8 1787.34,-137.8 1787.34,-137.8"/>
<polygon fill="black" stroke="black" points="1787.34,-141.3 1797.34,-137.8 1787.34,-134.3 1787.34,-141.3"/>
</g>
<!-- MachineService -->
<g id="node23" class="node">
<title>MachineService</title>
<ellipse fill="#fdb462" stroke="black" cx="392" cy="-66.8" rx="73.55" ry="18"/>
<text text-anchor="middle" x="392" y="-62.6" font-family="Times,serif" font-size="14.00">MachineService</text>
</g>
<!-- MachineService&#45;&gt;AppModule -->
<g id="edge22" class="edge">
<title>MachineService&#45;&gt;AppModule</title>
<path fill="none" stroke="black" d="M392,-85.09C392,-107.01 392,-140.8 392,-140.8 392,-140.8 1787.25,-140.8 1787.25,-140.8"/>
<polygon fill="black" stroke="black" points="1787.25,-144.3 1797.25,-140.8 1787.25,-137.3 1787.25,-144.3"/>
</g>
<!-- WorkersService -->
<g id="node24" class="node">
<title>WorkersService</title>
<ellipse fill="#fdb462" stroke="black" cx="227" cy="-66.8" rx="73.47" ry="18"/>
<text text-anchor="middle" x="227" y="-62.6" font-family="Times,serif" font-size="14.00">WorkersService</text>
</g>
<!-- WorkersService&#45;&gt;AppModule -->
<g id="edge23" class="edge">
<title>WorkersService&#45;&gt;AppModule</title>
<path fill="none" stroke="black" d="M227,-85.05C227,-107.82 227,-143.8 227,-143.8 227,-143.8 1787.12,-143.8 1787.12,-143.8"/>
<polygon fill="black" stroke="black" points="1787.12,-147.3 1797.12,-143.8 1787.12,-140.3 1787.12,-147.3"/>
</g>
<!-- dataService -->
<g id="node25" class="node">
<title>dataService</title>
<ellipse fill="#fdb462" stroke="black" cx="80" cy="-66.8" rx="56.16" ry="18"/>
<text text-anchor="middle" x="80" y="-62.6" font-family="Times,serif" font-size="14.00">dataService</text>
</g>
<!-- dataService&#45;&gt;AppModule -->
<g id="edge24" class="edge">
<title>dataService&#45;&gt;AppModule</title>
<path fill="none" stroke="black" d="M80,-84.95C80,-108.56 80,-146.8 80,-146.8 80,-146.8 1787.25,-146.8 1787.25,-146.8"/>
<polygon fill="black" stroke="black" points="1787.25,-150.3 1797.25,-146.8 1787.25,-143.3 1787.25,-150.3"/>
</g>
</g>
</svg>
